# xmcd
#
# Track frame offsets: 
#        150
#        27065
#        44280
#        61588
#        72615
#        83947
#        99066
#        124715
#        145486
#        158681
#        174120
#        192615
#        212083
#        259336
#        272188
#        294725
#
# Disc length: 4130 seconds
#
# Revision: 0
# Processed by: cddbd v1.4PL0 Copyright (c) Steve Scherf et al.
# Submitted via: ExactAudioCopy v0.90a11
#
DISCID=e9102010
DTITLE=Christian, Charlie - Radioland 1939-1941
DYEAR=1900
DGENRE=
TTITLE0=I Got Rhythm
TTITLE1=Good Morning Blues
TTITLE2=Pagin' The Devil
TTITLE3=Guy's Got To Go
TTITLE4=Way Down Yonder In New Orleans
TTITLE5=One Sweet Letter From You
TTITLE6=Stardust
TTITLE7=Tea For Two
TTITLE8=Haven't Named It Yet
TTITLE9=Wrap Your Troubles In Dreams
TTITLE10=Profoundly Blue
TTITLE11=Jammin' In Four
TTITLE12=Oh Lady Be Good
TTITLE13=Stardust
TTITLE14=Lip's Flips
TTITLE15=Ad-Lib Blues
EXTD=
EXTT0=
EXTT1=
EXTT2=
EXTT3=
EXTT4=
EXTT5=
EXTT6=
EXTT7=
EXTT8=
EXTT9=
EXTT10=
EXTT11=
EXTT12=
EXTT13=
EXTT14=
EXTT15=
PLAYORDER=
